<svg width="400" height="80" viewBox="0 0 400 80" fill="none" xmlns="http://www.w3.org/2000/svg">
<rect y="8" width="64" height="64" rx="16.126" fill="#010101"/>
<path d="M16.9685 27.1476C16.9685 26.3578 16.9685 25.9628 17.1346 25.7316C17.2795 25.5299 17.5025 25.3984 17.7492 25.3694C18.0319 25.336 18.3774 25.5273 19.0684 25.9098L28.6179 31.1961C28.8834 31.3431 29.0161 31.4166 29.1128 31.5213C29.1984 31.6139 29.2631 31.7237 29.3027 31.8434C29.3475 31.9787 29.3475 32.1304 29.3475 32.4339V58.6372C29.3475 59.4163 29.3475 59.8059 29.1835 60.0361C29.0404 60.237 28.8199 60.3691 28.5752 60.4003C28.2948 60.4361 27.9514 60.2521 27.2646 59.8842L17.7152 54.7684C17.4437 54.623 17.3079 54.5503 17.2089 54.4451C17.1214 54.3522 17.055 54.2413 17.0144 54.1203C16.9685 53.9834 16.9685 53.8294 16.9685 53.5214L16.9685 27.1476Z" fill="white"/>
<path d="M28.9053 21.4157C28.9053 20.6214 28.9053 20.2243 29.0722 19.9927C29.2179 19.7907 29.442 19.6594 29.6894 19.6313C29.9731 19.599 30.3195 19.7933 31.0122 20.1819L46.309 28.763C46.5721 28.9106 46.7036 28.9844 46.7993 29.0889C46.884 29.1813 46.9481 29.2907 46.9873 29.4098C47.0316 29.5444 47.0316 29.6953 47.0316 29.9969V42.4833C47.0316 42.7863 47.0316 42.9377 46.9869 43.0728C46.9475 43.1924 46.8829 43.3021 46.7976 43.3947C46.7012 43.4993 46.5688 43.5729 46.3039 43.72L37.1965 48.7796C36.5051 49.1638 36.1593 49.3559 35.8764 49.3228C35.6295 49.294 35.4062 49.1626 35.2611 48.9608C35.0947 48.7295 35.0947 48.334 35.0947 47.5429V37.3102C35.0947 37.0021 35.0947 36.8481 35.0488 36.7113C35.0082 36.5902 34.9418 36.4794 34.8543 36.3864C34.7553 36.2813 34.6196 36.2085 34.3481 36.0631L29.6519 33.5473C29.3804 33.4019 29.2447 33.3291 29.1457 33.224C29.0582 33.131 28.9918 33.0202 28.9512 32.8991C28.9053 32.7623 28.9053 32.6083 28.9053 32.3002L28.9053 21.4157Z" fill="white"/>
<path d="M92.5659 66V18.7556H110.195C113.408 18.7556 116.241 19.3474 118.693 20.5312C121.187 21.6727 123.132 23.3637 124.527 25.6044C125.922 27.8028 126.62 30.4874 126.62 33.6582C126.62 36.7867 125.901 39.4712 124.464 41.7119C123.069 43.9103 121.145 45.6014 118.693 46.7851C116.241 47.9689 113.408 48.5608 110.195 48.5608H101.19V66H92.5659ZM101.19 40.9509H110.322C111.886 40.9509 113.239 40.655 114.381 40.0631C115.522 39.429 116.41 38.5623 117.044 37.4631C117.678 36.3639 117.995 35.0956 117.995 33.6582C117.995 32.1785 117.678 30.9102 117.044 29.8532C116.41 28.754 115.522 27.9085 114.381 27.3166C113.239 26.6825 111.886 26.3654 110.322 26.3654H101.19V40.9509ZM130.453 66V31.502H138.76V66H130.453ZM130.453 27.6337V18.7556H138.76V27.6337H130.453ZM160.635 79.9514C158.056 79.9514 155.668 79.5286 153.469 78.6831C151.271 77.8375 149.369 76.6538 147.762 75.1318C146.198 73.6521 145.056 71.8976 144.338 69.8683L152.074 66.9512C152.582 68.5578 153.575 69.8472 155.055 70.8196C156.577 71.8342 158.437 72.3415 160.635 72.3415C162.326 72.3415 163.806 72.0245 165.074 71.3903C166.385 70.7562 167.4 69.8261 168.118 68.6C168.837 67.4163 169.196 65.9789 169.196 64.2878V56.4243L170.782 58.3267C169.598 60.3983 168.013 61.9626 166.026 63.0195C164.039 64.0764 161.777 64.6049 159.24 64.6049C156.027 64.6049 153.152 63.865 150.616 62.3853C148.079 60.9056 146.092 58.8763 144.655 56.2975C143.217 53.7186 142.499 50.8226 142.499 47.6095C142.499 44.3542 143.217 41.4583 144.655 38.9216C146.092 36.385 148.058 34.398 150.552 32.9606C153.047 31.4809 155.879 30.7411 159.05 30.7411C161.629 30.7411 163.891 31.2907 165.835 32.3899C167.822 33.4468 169.471 34.9899 170.782 37.0192L169.64 39.1119V31.502H177.504V64.2878C177.504 67.2894 176.764 69.974 175.284 72.3415C173.847 74.709 171.86 76.5692 169.323 77.9221C166.829 79.2749 163.933 79.9514 160.635 79.9514ZM160.255 56.9316C162.03 56.9316 163.574 56.5511 164.884 55.7901C166.237 54.9869 167.294 53.8877 168.055 52.4925C168.816 51.0974 169.196 49.4909 169.196 47.673C169.196 45.8973 168.795 44.3119 167.992 42.9168C167.231 41.4794 166.174 40.3591 164.821 39.5558C163.51 38.7525 161.988 38.3509 160.255 38.3509C158.522 38.3509 156.957 38.7525 155.562 39.5558C154.167 40.3591 153.068 41.4794 152.265 42.9168C151.504 44.3119 151.123 45.8973 151.123 47.673C151.123 49.4486 151.504 51.034 152.265 52.4291C153.068 53.8243 154.146 54.9235 155.499 55.7267C156.894 56.53 158.479 56.9316 160.255 56.9316ZM182.726 66V31.502H190.526V39.4924L189.638 38.1607C190.272 35.6663 191.54 33.8061 193.443 32.5801C195.345 31.3541 197.586 30.7411 200.165 30.7411C202.997 30.7411 205.492 31.4809 207.648 32.9606C209.804 34.4403 211.199 36.385 211.833 38.7948L209.487 38.9851C210.544 36.2371 212.129 34.1866 214.243 32.8338C216.357 31.4386 218.788 30.7411 221.536 30.7411C223.988 30.7411 226.165 31.2907 228.068 32.3899C230.012 33.4891 231.534 35.0322 232.634 37.0192C233.733 38.9639 234.282 41.2257 234.282 43.8046V66H225.975V45.7705C225.975 44.2485 225.7 42.9379 225.151 41.8388C224.601 40.7396 223.84 39.894 222.868 39.3021C221.895 38.668 220.711 38.3509 219.316 38.3509C218.006 38.3509 216.843 38.668 215.829 39.3021C214.814 39.894 214.032 40.7396 213.482 41.8388C212.933 42.9379 212.658 44.2485 212.658 45.7705V66H204.35V45.7705C204.35 44.2485 204.076 42.9379 203.526 41.8388C202.976 40.7396 202.194 39.894 201.18 39.3021C200.207 38.668 199.045 38.3509 197.692 38.3509C196.381 38.3509 195.219 38.668 194.204 39.3021C193.189 39.894 192.407 40.7396 191.858 41.8388C191.308 42.9379 191.033 44.2485 191.033 45.7705V66H182.726ZM255.135 66.761C251.584 66.761 248.477 65.9577 245.813 64.3512C243.15 62.7447 241.078 60.5674 239.598 57.8194C238.119 55.0714 237.379 52.0275 237.379 48.6876C237.379 45.2209 238.119 42.1558 239.598 39.4924C241.12 36.7867 243.171 34.6517 245.75 33.0874C248.371 31.5232 251.288 30.7411 254.501 30.7411C257.207 30.7411 259.574 31.185 261.603 32.0728C263.675 32.9606 265.43 34.1866 266.867 35.7509C268.304 37.3151 269.404 39.1119 270.165 41.1412C270.926 43.1282 271.306 45.2843 271.306 47.6095C271.306 48.2014 271.264 48.8144 271.179 49.4486C271.137 50.0827 271.031 50.6323 270.862 51.0974H244.228V44.7559H266.169L262.238 47.7364C262.618 45.7916 262.512 44.0583 261.921 42.5363C261.371 41.0144 260.441 39.8095 259.13 38.9216C257.862 38.0338 256.319 37.5899 254.501 37.5899C252.768 37.5899 251.225 38.0338 249.872 38.9216C248.519 39.7672 247.483 41.0355 246.764 42.7266C246.088 44.3754 245.834 46.3835 246.003 48.751C245.834 50.8649 246.109 52.7462 246.828 54.395C247.589 56.0015 248.688 57.2487 250.125 58.1365C251.605 59.0243 253.296 59.4682 255.199 59.4682C257.101 59.4682 258.708 59.0666 260.018 58.2633C261.371 57.4601 262.428 56.382 263.189 55.0291L269.911 58.3267C269.234 59.9755 268.178 61.4341 266.74 62.7024C265.303 63.9707 263.591 64.9642 261.603 65.6829C259.659 66.4016 257.503 66.761 255.135 66.761ZM275.067 66V31.502H282.867V38.2875L282.233 37.0826C283.036 35.011 284.347 33.4468 286.165 32.3899C288.025 31.2907 290.181 30.7411 292.633 30.7411C295.17 30.7411 297.41 31.2907 299.355 32.3899C301.342 33.4891 302.885 35.0322 303.984 37.0192C305.083 38.9639 305.633 41.2257 305.633 43.8046V66H297.326V45.7705C297.326 44.2485 297.03 42.9379 296.438 41.8388C295.846 40.7396 295.022 39.894 293.965 39.3021C292.95 38.668 291.745 38.3509 290.35 38.3509C288.997 38.3509 287.792 38.668 286.735 39.3021C285.678 39.894 284.854 40.7396 284.262 41.8388C283.67 42.9379 283.374 44.2485 283.374 45.7705V66H275.067ZM325.848 66.3805C321.959 66.3805 318.936 65.3236 316.78 63.2097C314.666 61.0536 313.609 58.0308 313.609 54.1413V38.9216H307.648V31.502H308.282C309.973 31.502 311.284 31.0581 312.214 30.1703C313.144 29.2825 313.609 27.9931 313.609 26.302V23.6385H321.916V31.502H329.843V38.9216H321.916V53.6974C321.916 54.8389 322.107 55.8113 322.487 56.6145C322.91 57.4178 323.544 58.0308 324.39 58.4536C325.277 58.8763 326.398 59.0877 327.751 59.0877C328.047 59.0877 328.385 59.0666 328.765 59.0243C329.188 58.982 329.59 58.9398 329.97 58.8975V66C329.378 66.0846 328.702 66.1691 327.941 66.2537C327.18 66.3382 326.482 66.3805 325.848 66.3805ZM361.413 66.761C357.777 66.761 354.543 66 351.71 64.478C348.92 62.9561 346.722 60.8634 345.115 58.1999C343.509 55.5365 342.705 52.5137 342.705 49.1315V18.7556H351.33V48.6876C351.33 50.6323 351.753 52.3868 352.598 53.9511C353.486 55.5153 354.691 56.7414 356.213 57.6292C357.735 58.4747 359.468 58.8975 361.413 58.8975C363.4 58.8975 365.133 58.4747 366.613 57.6292C368.135 56.7414 369.319 55.5153 370.164 53.9511C371.052 52.3868 371.496 50.6323 371.496 48.6876V18.7556H380.12V49.1315C380.12 52.5137 379.317 55.5365 377.711 58.1999C376.104 60.8634 373.884 62.9561 371.052 64.478C368.262 66 365.049 66.761 361.413 66.761ZM386.194 66V18.7556H394.818V66H386.194Z" fill="#010101"/>
</svg>
